<svg xmlns="http://www.w3.org/2000/svg" version="1.1" xmlns:xlink="http://www.w3.org/1999/xlink" xmlns:svgjs="http://svgjs.dev/svgjs" width="2000" height="429" viewBox="0 0 2000 429"><g transform="matrix(1,0,0,1,-1.2121212121213603,-0.5519449830840699)"><svg viewBox="0 0 396 85" data-background-color="#ffffff" preserveAspectRatio="xMidYMid meet" height="429" width="2000" xmlns="http://www.w3.org/2000/svg" xmlns:xlink="http://www.w3.org/1999/xlink"><g id="tight-bounds" transform="matrix(1,0,0,1,0.24000000000003752,0.10939812274060046)"><svg viewBox="0 0 395.5199999999999 84.78120392903766" height="84.78120392903766" width="395.5199999999999"><g><svg viewBox="0 0 528.0432038819888 113.18805256791391" height="84.78120392903766" width="395.5199999999999"><g transform="matrix(1,0,0,1,132.5232038819888,15.643211317273199)"><svg viewBox="0 0 395.52000000000004 81.90162993336752" height="81.90162993336752" width="395.52000000000004"><g id="textblocktransform"><svg viewBox="0 0 395.52000000000004 81.90162993336752" height="81.90162993336752" width="395.52000000000004" id="textblock"><g><svg viewBox="0 0 395.52000000000004 81.90162993336752" height="81.90162993336752" width="395.52000000000004"><g transform="matrix(1,0,0,1,0,0)"><svg width="395.52000000000004" viewBox="0.35 -39.65 195.08 40.4" height="81.90162993336752" data-palette-color="#4790fc"><path d="M11.75-35.25Q14.75-35.25 17.05-34.2 19.35-33.15 21.3-31.05L21.3-31.05 18.35-27.65Q16.8-29.05 15.33-29.75 13.85-30.45 12.2-30.45L12.2-30.45Q10.3-30.45 9.2-29.28 8.1-28.1 8.1-26.2L8.1-26.2Q8.1-24.3 9.25-23.1 10.4-21.9 13.75-20.6L13.75-20.6Q18.05-18.85 20.08-16.5 22.1-14.15 22.1-9.85L22.1-9.85Q22.1-6.9 20.75-4.48 19.4-2.05 16.88-0.65 14.35 0.75 11 0.75L11 0.75Q7.55 0.75 5-0.48 2.45-1.7 0.35-3.95L0.35-3.95 3.55-7.45Q5.35-5.85 7-5 8.65-4.15 10.6-4.15L10.6-4.15Q12.9-4.15 14.18-5.58 15.45-7 15.45-9.45L15.45-9.45Q15.45-11.6 14.33-12.98 13.2-14.35 10.15-15.5L10.15-15.5Q5.55-17.35 3.53-19.75 1.5-22.15 1.5-25.75L1.5-25.75Q1.5-28.5 2.83-30.65 4.15-32.8 6.5-34.02 8.85-35.25 11.75-35.25L11.75-35.25ZM44.25-26.45L44.25 0 38.9 0 38.6-3.35Q37.35-1.3 35.8-0.28 34.25 0.75 32.2 0.75L32.2 0.75Q29.3 0.75 27.62-1.3 25.95-3.35 25.95-6.65L25.95-6.65 25.95-26.45 32.1-26.45 32.1-7Q32.1-3.9 34.2-3.9L34.2-3.9Q35.4-3.9 36.35-4.83 37.3-5.75 38.1-7.45L38.1-7.45 38.1-26.45 44.25-26.45ZM49.95-26.45L56.09-26.45 56.09 0 49.95 0 49.95-26.45ZM52.99-39.65Q54.64-39.65 55.67-38.6 56.7-37.55 56.7-35.9L56.7-35.9Q56.7-34.3 55.67-33.25 54.64-32.2 52.99-32.2L52.99-32.2Q51.34-32.2 50.32-33.25 49.3-34.3 49.3-35.9L49.3-35.9Q49.3-37.55 50.32-38.6 51.34-39.65 52.99-39.65L52.99-39.65ZM84.04-35.25Q86.89-35.25 89.14-34.23 91.39-33.2 93.39-31.25L93.39-31.25 90.19-27.95Q88.64-29.3 87.29-29.88 85.94-30.45 84.24-30.45L84.24-30.45Q80.94-30.45 79.07-27.5 77.19-24.55 77.19-17.3L77.19-17.3Q77.19-12.2 77.87-9.33 78.54-6.45 79.87-5.3 81.19-4.15 83.34-4.15L83.34-4.15Q85.59-4.15 87.44-5.4L87.44-5.4 87.44-14.75 83.54-14.75 82.89-19.5 93.49-19.5 93.49-2.6Q91.34-1.05 88.72-0.18 86.09 0.7 83.39 0.7L83.39 0.7Q76.94 0.7 73.74-3.68 70.54-8.05 70.54-17.3L70.54-17.3Q70.54-23.3 72.32-27.33 74.09-31.35 77.14-33.3 80.19-35.25 84.04-35.25L84.04-35.25ZM115.44-6.4Q115.44-5.1 115.79-4.48 116.14-3.85 116.94-3.45L116.94-3.45 115.69 0.65Q113.64 0.4 112.41-0.45 111.19-1.3 110.59-3.05L110.59-3.05Q108.29 0.75 104.14 0.75L104.14 0.75Q100.84 0.75 98.89-1.48 96.94-3.7 96.94-7.4L96.94-7.4Q96.94-11.7 99.61-13.95 102.29-16.2 107.39-16.2L107.39-16.2 109.44-16.2 109.44-18.05Q109.44-20.55 108.56-21.58 107.69-22.6 105.74-22.6L105.74-22.6Q103.39-22.6 99.89-21.3L99.89-21.3 98.49-25.3Q100.49-26.2 102.64-26.68 104.79-27.15 106.74-27.15L106.74-27.15Q115.44-27.15 115.44-18.35L115.44-18.35 115.44-6.4ZM105.79-3.7Q108.19-3.7 109.44-7L109.44-7 109.44-12.55 107.99-12.55Q105.44-12.55 104.26-11.4 103.09-10.25 103.09-7.85L103.09-7.85Q103.09-5.8 103.79-4.75 104.49-3.7 105.79-3.7L105.79-3.7ZM144.89-27.15Q147.54-27.15 149.14-25.1 150.74-23.05 150.74-19.6L150.74-19.6 150.74 0 144.69 0 144.69-18.95Q144.69-20.85 144.19-21.68 143.69-22.5 142.74-22.5L142.74-22.5Q140.79-22.5 138.99-18.8L138.99-18.8 138.99 0 132.99 0 132.99-18.95Q132.99-22.5 131.09-22.5L131.09-22.5Q129.04-22.5 127.29-18.8L127.29-18.8 127.29 0 121.24 0 121.24-26.45 126.59-26.45 126.99-23.05Q129.59-27.15 133.24-27.15L133.24-27.15Q135.09-27.15 136.44-26 137.79-24.85 138.49-22.75L138.49-22.75Q141.14-27.15 144.89-27.15L144.89-27.15ZM175.08-13.85Q175.08-13.4 174.93-11.3L174.93-11.3 161.28-11.3Q161.48-7.2 162.71-5.58 163.93-3.95 166.18-3.95L166.18-3.95Q167.73-3.95 168.98-4.48 170.23-5 171.68-6.15L171.68-6.15 174.23-2.65Q170.73 0.75 165.83 0.75L165.83 0.75Q160.63 0.75 157.86-2.85 155.08-6.45 155.08-13L155.08-13Q155.08-19.55 157.73-23.35 160.38-27.15 165.23-27.15L165.23-27.15Q169.88-27.15 172.48-23.78 175.08-20.4 175.08-13.85L175.08-13.85ZM169.08-15.3L169.08-15.65Q169.08-19.4 168.18-21.13 167.28-22.85 165.28-22.85L165.28-22.85Q163.43-22.85 162.46-21.18 161.48-19.5 161.28-15.3L161.28-15.3 169.08-15.3ZM186.73-27.15Q191.43-27.15 194.68-24.05L194.68-24.05 192.33-20.7Q190.93-21.7 189.68-22.2 188.43-22.7 187.13-22.7L187.13-22.7Q185.68-22.7 184.86-21.93 184.03-21.15 184.03-19.8L184.03-19.8Q184.03-18.45 184.96-17.63 185.88-16.8 188.68-15.7L188.68-15.7Q192.13-14.35 193.78-12.5 195.43-10.65 195.43-7.55L195.43-7.55Q195.43-3.7 192.73-1.48 190.03 0.75 185.88 0.75L185.88 0.75Q183.18 0.75 180.91-0.23 178.63-1.2 176.93-2.95L176.93-2.95 179.93-6.25Q182.73-3.8 185.63-3.8L185.63-3.8Q187.28-3.8 188.23-4.67 189.18-5.55 189.18-7.1L189.18-7.1Q189.18-8.25 188.78-8.97 188.38-9.7 187.38-10.33 186.38-10.95 184.38-11.7L184.38-11.7Q180.93-13.05 179.46-14.85 177.98-16.65 177.98-19.45L177.98-19.45Q177.98-22.8 180.36-24.98 182.73-27.15 186.73-27.15L186.73-27.15Z" opacity="1" transform="matrix(1,0,0,1,0,0)" fill="#4790fc" class="wordmark-text-0" data-fill-palette-color="primary" id="text-0"></path></svg></g></svg></g></svg></g></svg></g><g><svg viewBox="0 0 113.18819469383912 113.18805256791391" height="113.18805256791391" width="113.18819469383912"><g><svg xmlns="http://www.w3.org/2000/svg" xmlns:xlink="http://www.w3.org/1999/xlink" version="1.1" x="0" y="0" viewBox="1.7099915 1.710022 48.5800171 48.5799561" enable-background="new 0 0 52 52" xml:space="preserve" height="113.18805256791391" width="113.18819469383912" class="icon-icon-0" data-fill-palette-color="accent" id="icon-0"><g fill="#ed2326" data-fill-palette-color="accent"><polygon points="27.4153137,26 30.0645447,28.649353 30.0645447,23.350647  " fill="#ed2326" data-fill-palette-color="accent"></polygon><rect x="32.0645447" y="21.9365234" width="18.2254639" height="8.1269531" fill="#ed2326" data-fill-palette-color="accent"></rect><rect x="1.7099915" y="21.9365234" width="18.2280884" height="8.1269531" fill="#ed2326" data-fill-palette-color="accent"></rect><polygon points="26.0013123,27.4141235 23.3520813,30.0634766 28.6505432,30.0634766  " fill="#ed2326" data-fill-palette-color="accent"></polygon><polygon points="23.3520813,21.9365234 26.0013123,24.5858765 28.6505432,21.9365234  " fill="#ed2326" data-fill-palette-color="accent"></polygon><polygon points="24.5873108,26 21.9380798,23.350647 21.9380798,28.649353  " fill="#ed2326" data-fill-palette-color="accent"></polygon><rect x="21.9380798" y="32.0634766" width="8.1264648" height="18.2265015" fill="#ed2326" data-fill-palette-color="accent"></rect><path d="M19.938 32.063H1.71V50.29h18.228V32.063zM11.824 45.24c-2.796 0-5.063-2.267-5.063-5.063 0-2.796 2.267-5.063 5.063-5.063 2.796 0 5.063 2.267 5.063 5.063C16.887 42.974 14.621 45.24 11.824 45.24z" fill="#ed2326" data-fill-palette-color="accent"></path><rect x="21.9380798" y="1.710022" width="8.1264648" height="18.2265015" fill="#ed2326" data-fill-palette-color="accent"></rect><path d="M32.065 19.937h18.225V1.71H32.065V19.937zM40.178 6.76c2.796 0 5.063 2.267 5.064 5.063 0 2.796-2.267 5.063-5.064 5.063-2.796 0-5.063-2.267-5.063-5.063C35.115 9.026 37.382 6.76 40.178 6.76z" fill="#ed2326" data-fill-palette-color="accent"></path><path d="M19.938 19.937V1.71H1.71v18.227H19.938zM11.824 6.76c2.796 0 5.063 2.267 5.063 5.063 0 2.796-2.267 5.063-5.063 5.063-2.796 0-5.063-2.267-5.063-5.063C6.761 9.026 9.028 6.76 11.824 6.76z" fill="#ed2326" data-fill-palette-color="accent"></path><path d="M32.065 32.063V50.29h18.225V32.063H32.065zM40.178 45.24c-2.796 0-5.063-2.267-5.063-5.063 0-2.796 2.267-5.063 5.063-5.063 2.796 0 5.063 2.267 5.064 5.063C45.242 42.974 42.975 45.24 40.178 45.24z" fill="#ed2326" data-fill-palette-color="accent"></path></g></svg></g></svg></g></svg></g><defs></defs></svg><rect width="395.5199999999999" height="84.78120392903766" fill="none" stroke="none" visibility="hidden"></rect></g></svg></g></svg>